<svg width="24" height="24" viewBox="0 0 24 24" fill="none" xmlns="http://www.w3.org/2000/svg">
<path d="M2.4 8.39998C2.4 5.74873 4.54875 3.59998 7.2 3.59998H16.8C19.4513 3.59998 21.6 5.74873 21.6 8.39998V9.65998C20.2313 9.93748 19.2 11.1487 19.2 12.6V14.4H4.8V12.6C4.8 11.1487 3.76875 9.93748 2.4 9.65998V8.39998ZM20.4 12.6C20.4 11.8162 20.9025 11.1487 21.6 10.9012C21.7875 10.8337 21.99 10.8 22.2 10.8C23.1938 10.8 24 11.6062 24 12.6V19.2C24 19.8637 23.4638 20.4 22.8 20.4H21.6C20.9363 20.4 20.4 19.8637 20.4 19.2H3.6C3.6 19.8637 3.06375 20.4 2.4 20.4H1.2C0.53625 20.4 0 19.8637 0 19.2V12.6C0 11.6062 0.80625 10.8 1.8 10.8C2.01 10.8 2.2125 10.8375 2.4 10.9012C3.0975 11.1487 3.6 11.8162 3.6 12.6V14.4V15.6H4.8H19.2H20.4V14.4V12.6Z" fill="black"/>
</svg>
