<svg width="24" height="24" viewBox="0 0 24 24" fill="none" xmlns="http://www.w3.org/2000/svg">
<path d="M4.58247 2.40002C3.43872 2.40002 2.45622 3.20627 2.23122 4.32752L0.311224 13.9275C0.0149742 15.4125 1.14747 16.8 2.66247 16.8H10.8V19.2H8.39997C7.73622 19.2 7.19997 19.7363 7.19997 20.4C7.19997 21.0638 7.73622 21.6 8.39997 21.6H15.6C16.2637 21.6 16.8 21.0638 16.8 20.4C16.8 19.7363 16.2637 19.2 15.6 19.2H13.2V16.8H21.3375C22.8525 16.8 23.9887 15.4163 23.6925 13.9275L21.7725 4.32752C21.5437 3.20627 20.5612 2.40002 19.4175 2.40002H4.58247ZM9.78372 4.80002H14.2162L14.6062 8.70002H9.39372L9.78372 4.80002ZM7.58622 8.70002H3.80622L4.58247 4.80002H7.97247L7.58622 8.70002ZM3.44247 10.5H7.40247L7.01622 14.4H2.66247L3.44247 10.5ZM9.21372 10.5H14.7862L15.1762 14.4H8.82372L9.21372 10.5ZM16.5937 10.5H20.5537L21.3375 14.4H16.9875L16.5937 10.5ZM20.1937 8.70002H16.4137L16.0237 4.80002H19.4137L20.5912 4.56377L19.4175 4.80002L20.1975 8.70002H20.1937Z" fill="black"/>
</svg>
